<?xml version="1.0" encoding="UTF-8"?>
<svg version="1.1" xmlns="http://www.w3.org/2000/svg" width="1200" height="400">
<path d="M0 0 C1.27746094 -0.00128906 2.55492187 -0.00257812 3.87109375 -0.00390625 C4.53351074 -0.00181152 5.19592773 0.0002832 5.87841797 0.00244141 C7.89949042 0.0077946 9.92034066 0.00248486 11.94140625 -0.00390625 C13.21886719 -0.00261719 14.49632812 -0.00132813 15.8125 0 C16.98103516 0.00112793 18.14957031 0.00225586 19.35351562 0.00341797 C21.93044747 0.11264493 23.95582663 0.41277975 26.40625 1.1328125 C28.26701066 1.47039312 30.12793131 1.80718536 31.99047852 2.13476562 C38.66433079 3.31847384 45.08283555 4.622045 51.40625 7.1328125 C52.499375 7.5659375 53.5925 7.9990625 54.71875 8.4453125 C60.0466471 10.79362734 65.21561473 13.49914042 70.40625 16.1328125 C70.40625 16.7928125 70.40625 17.4528125 70.40625 18.1328125 C71.40978516 18.21595703 71.40978516 18.21595703 72.43359375 18.30078125 C76.63188456 19.47586133 79.53968628 21.81258134 82.96875 24.4453125 C83.67475342 24.98438232 84.38075684 25.52345215 85.1081543 26.07885742 C110.13131142 45.55201025 126.30194161 72.80717796 131.40625 104.1328125 C131.67115234 105.40898437 131.67115234 105.40898437 131.94140625 106.7109375 C134.742802 120.90467597 133.89281667 134.18654582 130.40625 148.1328125 C130.25414062 149.09703125 130.10203125 150.06125 129.9453125 151.0546875 C129.31112899 154.67596724 128.31833129 158.13199966 127.21875 161.6328125 C127.00387939 162.32117188 126.78900879 163.00953125 126.56762695 163.71875 C124.31505719 170.73424 121.45455381 177.42863917 118.40625 184.1328125 C117.74625 184.1328125 117.08625 184.1328125 116.40625 184.1328125 C116.31214844 184.67808594 116.21804688 185.22335938 116.12109375 185.78515625 C115.2036713 188.79811195 113.69170612 191.06252092 111.96875 193.6953125 C111.04255859 195.12037109 111.04255859 195.12037109 110.09765625 196.57421875 C108.87108036 198.42966265 107.64002601 200.28214849 106.40625 202.1328125 C105.74625 202.1328125 105.08625 202.1328125 104.40625 202.1328125 C104.138125 202.9371875 103.87 203.7415625 103.59375 204.5703125 C103.201875 205.4159375 102.81 206.2615625 102.40625 207.1328125 C101.41625 207.4628125 100.42625 207.7928125 99.40625 208.1328125 C98.19742904 210.13297716 98.19742904 210.13297716 97.40625 212.1328125 C96.74625 212.1328125 96.08625 212.1328125 95.40625 212.1328125 C95.15746094 212.71804688 94.90867187 213.30328125 94.65234375 213.90625 C93.23183144 216.44446949 91.6842047 217.88478376 89.46875 219.7578125 C88.77910156 220.34820312 88.08945313 220.93859375 87.37890625 221.546875 C82.91856527 225.1328125 82.91856527 225.1328125 79.40625 225.1328125 C78.74625 226.4528125 78.08625 227.7728125 77.40625 229.1328125 C76.08625 229.1328125 74.76625 229.1328125 73.40625 229.1328125 C73.40625 229.7928125 73.40625 230.4528125 73.40625 231.1328125 C70.75886084 232.593441 69.51176666 233.1328125 66.40625 233.1328125 C66.40625 233.7928125 66.40625 234.4528125 66.40625 235.1328125 C32.49254691 249.34463986 -0.13092405 253.68080536 -35.59375 241.1328125 C-36.30917969 240.88128418 -37.02460937 240.62975586 -37.76171875 240.37060547 C-46.82040557 237.14169726 -55.6409387 232.51421481 -63.59375 227.1328125 C-63.59375 226.4728125 -63.59375 225.8128125 -63.59375 225.1328125 C-64.315625 224.8853125 -65.0375 224.6378125 -65.78125 224.3828125 C-68.86981582 223.01011658 -71.10386418 221.40927954 -73.59375 219.1328125 C-73.59375 218.4728125 -73.59375 217.8128125 -73.59375 217.1328125 C-74.17125 216.88144531 -74.74875 216.63007813 -75.34375 216.37109375 C-81.13112056 213.18603044 -85.61192618 207.29443596 -89.59375 202.1328125 C-90.13 201.6171875 -90.66625 201.1015625 -91.21875 200.5703125 C-93.76548673 197.90781501 -94.59375 195.80572956 -94.59375 192.1328125 C-95.91375 191.4728125 -97.23375 190.8128125 -98.59375 190.1328125 C-98.59375 188.8128125 -98.59375 187.4928125 -98.59375 186.1328125 C-99.58375 185.8028125 -100.57375 185.4728125 -101.59375 185.1328125 C-101.92375 183.1528125 -102.25375 181.1728125 -102.59375 179.1328125 C-103.25375 179.1328125 -103.91375 179.1328125 -104.59375 179.1328125 C-110.95562956 164.12837957 -110.95562956 164.12837957 -112.12007141 156.55381775 C-112.57984688 154.20387232 -113.27073563 152.16131505 -114.12182617 149.92797852 C-115.75421443 145.13103891 -116.01474675 140.81991034 -115.95703125 135.78515625 C-115.95752975 134.92902237 -115.95802826 134.07288849 -115.95854187 133.19081116 C-115.95621842 131.39500588 -115.94659321 129.59919628 -115.92993164 127.8034668 C-115.90627984 125.07375627 -115.90939171 122.34502193 -115.91601562 119.61523438 C-115.91043916 117.85936925 -115.90332948 116.10350819 -115.89453125 114.34765625 C-115.89544266 113.54222885 -115.89635406 112.73680145 -115.89729309 111.90696716 C-115.83270035 106.68116548 -115.03437528 102.16012516 -113.59375 97.1328125 C-112.93375 97.1328125 -112.27375 97.1328125 -111.59375 97.1328125 C-111.78557861 96.39957764 -111.97740723 95.66634277 -112.17504883 94.91088867 C-112.62908796 91.89834566 -112.3480027 90.50101046 -111.29296875 87.68359375 C-110.98029053 86.8440918 -110.6676123 86.00458984 -110.34545898 85.13964844 C-109.81867554 83.80595215 -109.81867554 83.80595215 -109.28125 82.4453125 C-108.92168213 81.52137695 -108.56211426 80.59744141 -108.19165039 79.64550781 C-103.33498614 67.54372382 -97.09653915 53.36563605 -87.59375 44.1328125 C-86.93375 44.1328125 -86.27375 44.1328125 -85.59375 44.1328125 C-84.93375 42.8128125 -84.27375 41.4928125 -83.59375 40.1328125 C-82.93375 40.1328125 -82.27375 40.1328125 -81.59375 40.1328125 C-81.59375 39.1428125 -81.59375 38.1528125 -81.59375 37.1328125 C-80.1328125 35.52734375 -80.1328125 35.52734375 -78.21875 33.9453125 C-77.27902344 33.15060547 -77.27902344 33.15060547 -76.3203125 32.33984375 C-74.59375 31.1328125 -74.59375 31.1328125 -72.59375 31.1328125 C-72.09875 29.6478125 -72.09875 29.6478125 -71.59375 28.1328125 C-63.51011827 21.25218949 -49.60779166 10.1328125 -38.59375 10.1328125 C-38.59375 9.4728125 -38.59375 8.8128125 -38.59375 8.1328125 C-30.13653308 5.3208952 -21.90556409 2.72943458 -13.046875 1.4921875 C-10.69065743 1.20597561 -10.69065743 1.20597561 -8.85253906 0.61865234 C-5.87014087 -0.0228276 -3.05031463 0.00294432 0 0 Z " fill="#044120" transform="translate(1015.59375,64.8671875)"/>
<path d="M0 0 C19.47 0 38.94 0 59 0 C64.12345912 35.6507364 69.10913727 71.31679835 74 107 C79.13783021 71.35143753 84.09910085 35.68198501 89 0 C108.8 0 128.6 0 149 0 C149 62.37 149 124.74 149 189 C137.12 189 125.24 189 113 189 C112.67 149.4 112.34 109.8 112 69 C110.64003906 77.57871094 109.28007812 86.15742188 107.87890625 94.99609375 C106.90863433 101.103352 105.93784755 107.21052665 104.96631336 113.31758404 C103.70624977 121.23877984 102.44742265 129.16016584 101.19311523 137.08227539 C100.20037286 143.35233515 99.20477833 149.62193409 98.20571464 155.89098984 C97.6765173 159.21231488 97.14877916 162.53385736 96.62445259 165.85595512 C96.03929902 169.55879792 95.44910787 173.26080368 94.85766602 176.96264648 C94.68359726 178.07178909 94.5095285 179.1809317 94.33018494 180.32368469 C94.16894135 181.32634369 94.00769775 182.32900269 93.84156799 183.36204529 C93.70237725 184.23867042 93.56318651 185.11529554 93.41977787 186.01848507 C93 188 93 188 92 189 C89.40640678 189.08851529 86.83960309 189.11525945 84.24609375 189.09765625 C83.47064713 189.0962413 82.6952005 189.09482635 81.89625549 189.09336853 C79.40996506 189.08775345 76.9237634 189.07519846 74.4375 189.0625 C72.75586067 189.05748694 71.07421994 189.0529237 69.39257812 189.04882812 C65.26168434 189.03777913 61.13085724 189.02050445 57 189 C54.85183971 176.50662367 52.70435114 164.01313207 50.55767441 151.51950073 C49.5604147 145.71558249 48.56294045 139.91170131 47.56494141 134.10791016 C46.59829365 128.48638945 45.63225446 122.86476445 44.66660309 117.24307251 C44.30169736 115.11931787 43.93658774 112.99559825 43.57125092 110.87191772 C43.39762276 109.86255157 43.2239946 108.85318542 43.04510498 107.81323242 C42.89468121 106.9391423 42.74425743 106.06505219 42.58927536 105.16447449 C40.35231892 92.11562382 38.17661332 79.05967991 36 66 C35.67 106.59 35.34 147.18 35 189 C23.45 189 11.9 189 0 189 C0 126.63 0 64.26 0 0 Z " fill="#FFFFFF" transform="translate(296,99)"/>
<path d="M0 0 C0.78592529 0.11762695 1.57185059 0.23525391 2.3815918 0.35644531 C7.1935556 1.17975911 11.27230836 2.60530262 15.6875 4.6875 C15.6875 5.3475 15.6875 6.0075 15.6875 6.6875 C16.70070313 6.86925781 16.70070313 6.86925781 17.734375 7.0546875 C18.62640625 7.22226563 19.5184375 7.38984375 20.4375 7.5625 C21.31921875 7.72492188 22.2009375 7.88734375 23.109375 8.0546875 C25.55697744 8.65546264 27.49349857 9.46747117 29.6875 10.6875 C29.6875 11.3475 29.6875 12.0075 29.6875 12.6875 C30.863125 12.9040625 30.863125 12.9040625 32.0625 13.125 C34.6875 13.6875 34.6875 13.6875 36.6875 14.6875 C36.6875 15.3475 36.6875 16.0075 36.6875 16.6875 C38.3375 17.0175 39.9875 17.3475 41.6875 17.6875 C42.0175 18.6775 42.3475 19.6675 42.6875 20.6875 C44.45341887 21.69666033 44.45341887 21.69666033 46.6875 22.6875 C50.47170709 25.05262943 53.6382873 27.43500646 56.6875 30.6875 C57.285625 31.265 57.88375 31.8425 58.5 32.4375 C71.31006665 45.61356855 79.65367776 59.02572714 84.6875 76.6875 C85.22671926 78.47990476 85.76816621 80.27164184 86.3125 82.0625 C86.77515672 83.60287473 87.23313579 85.14465888 87.6875 86.6875 C88.02740967 87.74412842 88.36731934 88.80075684 88.7175293 89.8894043 C89.69674505 93.72370068 89.93135918 96.9240686 89.91796875 100.87109375 C89.91751053 101.53029312 89.91705231 102.18949249 89.9165802 102.8686676 C89.91358073 104.2527142 89.90576439 105.63675813 89.89331055 107.02075195 C89.87507681 109.11617272 89.87280124 111.21114877 89.87304688 113.30664062 C89.82971379 130.19046544 89.82971379 130.19046544 87.375 136.9375 C87.11074219 137.68257812 86.84648438 138.42765625 86.57421875 139.1953125 C86.28160156 140.01773438 85.98898437 140.84015625 85.6875 141.6875 C85.01872078 143.72847564 84.35214694 145.77017493 83.6875 147.8125 C82.21669435 152.22491695 80.5986517 156.44972883 78.6875 160.6875 C78.12249864 161.99892517 77.55997249 163.31141966 77 164.625 C76.566875 165.635625 76.13375 166.64625 75.6875 167.6875 C75.0275 167.6875 74.3675 167.6875 73.6875 167.6875 C73.44386719 168.39261719 73.20023438 169.09773437 72.94921875 169.82421875 C63.44149661 191.40056653 39.11194702 209.04861999 17.65869141 217.48535156 C13.37990878 219.03588678 9.04436589 220.37279661 4.6875 221.6875 C3.74003906 222.04070312 2.79257813 222.39390625 1.81640625 222.7578125 C-15.76213754 227.98090042 -39.03270634 226.44743122 -56.3125 220.6875 C-56.3125 220.0275 -56.3125 219.3675 -56.3125 218.6875 C-57.17875 218.56375 -58.045 218.44 -58.9375 218.3125 C-65.22035665 217.14900803 -70.69346195 214.69189701 -76.375 211.875 C-77.06916016 211.54435547 -77.76332031 211.21371094 -78.47851562 210.87304688 C-82.90714988 208.68186126 -86.01335832 206.3725062 -89.3125 202.6875 C-88.45374268 202.89862427 -88.45374268 202.89862427 -87.57763672 203.11401367 C-80.48648075 204.71054402 -73.6893718 205.0212043 -66.4375 205 C-65.34308594 205.01611328 -64.24867188 205.03222656 -63.12109375 205.04882812 C-52.78727063 205.05494281 -40.68156378 203.91527262 -32.9375 196.375 C-32.07125 195.488125 -31.205 194.60125 -30.3125 193.6875 C-29.01271751 192.71198757 -27.6991211 191.75471141 -26.375 190.8125 C-22.98538056 188.33522672 -20.47915863 185.68279296 -17.83984375 182.44140625 C-16.29150666 180.66339256 -14.67846572 179.20396258 -12.875 177.6875 C-8.60769442 174.05575057 -4.65094519 170.14370116 -0.6875 166.1875 C-0.05400635 165.5584375 0.5794873 164.929375 1.23217773 164.28125 C4.78385484 160.71890441 8.14804784 157.0760802 11.34741211 153.19311523 C12.6875 151.6875 12.6875 151.6875 15.625 149.25 C18.1437497 147.14247474 20.07825385 145.16760261 22.1875 142.6875 C25.09151318 139.27401082 28.24121602 136.55940332 31.6875 133.6875 C33.48303734 131.69608586 35.2134972 129.65689133 36.94921875 127.61328125 C38.54246534 125.84817884 40.15152094 124.36367778 42 122.875 C44.83319422 120.78869391 44.83319422 120.78869391 46.6875 117.6875 C47.3475 117.6875 48.0075 117.6875 48.6875 117.6875 C48.92855469 117.12417969 49.16960937 116.56085938 49.41796875 115.98046875 C50.94277597 113.22643232 52.82296381 111.27216719 55 109 C60.89677526 102.55336467 64.69558776 96.19839775 66.6875 87.6875 C67.3475 87.6875 68.0075 87.6875 68.6875 87.6875 C68.77582196 83.58347283 68.82833048 79.47969544 68.875 75.375 C68.90013672 74.22708984 68.92527344 73.07917969 68.95117188 71.89648438 C69.00780632 65.23249759 68.44587654 59.46766566 66.43481445 53.10083008 C65.67482771 50.6465769 65.15222186 48.21264825 64.6875 45.6875 C63.6975 45.3575 62.7075 45.0275 61.6875 44.6875 C61.3575 43.0375 61.0275 41.3875 60.6875 39.6875 C60.0275 39.6875 59.3675 39.6875 58.6875 39.6875 C57.4609375 38.18359375 57.4609375 38.18359375 56.0625 36.125 C52.32537036 30.96463917 47.85560534 25.74353511 41.6875 23.6875 C41.6875 23.0275 41.6875 22.3675 41.6875 21.6875 C41.130625 21.51734375 40.57375 21.3471875 40 21.171875 C35.27709953 19.67203499 30.95125571 17.94828841 26.609375 15.5546875 C16.8668075 11.15865095 0.54832095 12.24207429 -9.3125 15.5 C-10.99571144 16.19011669 -12.66652481 16.91275651 -14.3125 17.6875 C-15.385 18.14125 -16.4575 18.595 -17.5625 19.0625 C-20.7784827 20.96285341 -23.65861608 23.15504595 -26.578125 25.48046875 C-28.3125 26.6875 -28.3125 26.6875 -30.3125 26.6875 C-30.3125 27.3475 -30.3125 28.0075 -30.3125 28.6875 C-31.8515625 30.16796875 -31.8515625 30.16796875 -33.9375 31.875 C-36.64716777 34.1710869 -39.06546716 36.43767804 -41.3125 39.1875 C-44.07148099 42.54953694 -47.19468978 45.2576384 -50.50390625 48.06640625 C-52.73341908 50.06478168 -54.45188651 52.34672819 -56.3125 54.6875 C-57.44171224 55.68578909 -58.58927101 56.66353779 -59.75 57.625 C-63.06817403 60.38424919 -65.60113325 63.33396744 -68.3125 66.6875 C-72.82862903 71.52620968 -72.82862903 71.52620968 -76.3125 72.6875 C-76.8075 74.1725 -76.8075 74.1725 -77.3125 75.6875 C-78.79955316 76.94826246 -80.2901234 78.20601847 -81.8203125 79.4140625 C-83.63399815 80.96186753 -84.89879346 82.77899618 -86.3125 84.6875 C-86.9725 84.6875 -87.6325 84.6875 -88.3125 84.6875 C-88.51875 85.244375 -88.725 85.80125 -88.9375 86.375 C-90.46300699 88.94062539 -92.30642319 90.38598109 -94.62109375 92.2265625 C-97.1257467 94.3899348 -99.18626868 96.86771097 -101.3203125 99.390625 C-102.77204245 101.06438423 -104.27439653 102.69462678 -105.8046875 104.296875 C-112.05840208 110.86605887 -116.43771655 117.06314964 -119.3125 125.6875 C-119.9725 125.6875 -120.6325 125.6875 -121.3125 125.6875 C-122.71366964 136.67919971 -123.7465092 147.62089044 -124.3125 158.6875 C-124.9725 158.6875 -125.6325 158.6875 -126.3125 158.6875 C-127.56914978 155.78149739 -128.3125 153.89145416 -128.3125 150.6875 C-128.9725 150.6875 -129.6325 150.6875 -130.3125 150.6875 C-131.12724962 147.7922827 -131.93937322 144.89637172 -132.75 142 C-133.09514648 140.77506836 -133.09514648 140.77506836 -133.44726562 139.52539062 C-133.66962891 138.72939453 -133.89199219 137.93339844 -134.12109375 137.11328125 C-134.32532959 136.38536377 -134.52956543 135.65744629 -134.73999023 134.9074707 C-136.00240323 130.012323 -136.44076082 125.58879282 -136.4453125 120.515625 C-136.44626923 119.83377136 -136.44722595 119.15191772 -136.44821167 118.44940186 C-136.44888978 117.0105378 -136.44706132 115.57167062 -136.44287109 114.1328125 C-136.43755079 111.95826123 -136.44281143 109.78391963 -136.44921875 107.609375 C-136.45715238 97.08613878 -136.0186736 87.73437168 -132.5 77.75 C-132.23300293 76.97092285 -131.96600586 76.1918457 -131.69091797 75.38916016 C-129.73982273 69.75175028 -127.6562863 64.17471734 -125.3125 58.6875 C-124.6525 58.6875 -123.9925 58.6875 -123.3125 58.6875 C-123.209375 57.95917969 -123.10625 57.23085937 -123 56.48046875 C-120.36661597 45.78234611 -108.95699877 36.13082775 -101.3125 28.6875 C-100.86261719 28.18089844 -100.41273438 27.67429687 -99.94921875 27.15234375 C-75.27038276 0.26894672 -34.16600779 -5.14700184 0 0 Z " fill="#44CB7D" transform="translate(1047.3125,78.3125)"/>
<path d="M0 0 C13.2 0 26.4 0 40 0 C41.5259854 4.57795619 42.6177182 8.682192 43.51220703 13.38232422 C43.6512187 14.10663698 43.79023037 14.83094975 43.93345451 15.57721138 C44.37873701 17.90232464 44.81839657 20.22845923 45.2578125 22.5546875 C45.53340035 23.99819941 45.80935904 25.44164057 46.08569336 26.88500977 C47.10328295 32.21415161 48.11371439 37.54465828 49.125 42.875 C51.39375 54.79625 53.6625 66.7175 56 79 C56.33 52.93 56.66 26.86 57 0 C69.21 0 81.42 0 94 0 C94 62.37 94 124.74 94 189 C81.46 189 68.92 189 56 189 C50.39 161.28 44.78 133.56 39 105 C38.67 132.72 38.34 160.44 38 189 C25.46 189 12.92 189 0 189 C0 126.63 0 64.26 0 0 Z " fill="#FFFFFF" transform="translate(756,99)"/>
<path d="M0 0 C12.54 0 25.08 0 38 0 C38.01458252 4.41640869 38.02916504 8.83281738 38.04418945 13.38305664 C38.09450484 27.96763345 38.16094434 42.55210378 38.23571491 57.13657475 C38.28065817 65.97995372 38.32007623 74.82329255 38.34643555 83.66674805 C38.36942753 91.37575343 38.40283897 99.08463163 38.44870156 106.79353613 C38.47261763 110.87440619 38.49135698 114.95515042 38.49761391 119.03608894 C38.50367211 122.87995103 38.52369828 126.72349123 38.55427551 130.56723404 C38.56304399 131.97525864 38.56678078 133.38332533 38.56500816 134.79137611 C38.43382804 144.83892157 38.43382804 144.83892157 42 154 C44.33333333 155.33333333 44.33333333 155.33333333 47 155 C49.7859011 154.06196218 49.7859011 154.06196218 52 152 C53.72730824 147.81695418 54.25521973 144.23911321 54.2784729 139.73574829 C54.28963638 138.49903381 54.30079987 137.26231934 54.31230164 135.98812866 C54.31466618 134.63092072 54.31684191 133.27371243 54.31884766 131.91650391 C54.32815287 130.47720785 54.33832243 129.03791717 54.34928894 127.59863281 C54.37653619 123.70242952 54.39172265 119.80626228 54.40471697 115.90998888 C54.42037064 111.83402412 54.44715372 107.75813273 54.4727478 103.68222046 C54.51949603 95.96885024 54.55625927 88.25546617 54.58942068 80.54202688 C54.62767004 71.75845445 54.67707282 62.97495579 54.72740483 54.19144559 C54.83066587 36.12767812 54.91847293 18.06387953 55 0 C67.54 0 80.08 0 93 0 C93.06790117 19.03774575 93.12308856 38.07539241 93.15543652 57.1132288 C93.17086005 65.95419229 93.1918625 74.79507482 93.22631836 83.63598633 C93.25635974 91.34792322 93.27560774 99.05980143 93.28226548 106.77179521 C93.28615296 110.84962164 93.29519314 114.92728028 93.31719017 119.00505257 C93.33778915 122.85542027 93.34378739 126.70555357 93.33932304 130.55597115 C93.34013792 131.95744609 93.34596263 133.35893017 93.35761642 134.7603569 C93.48615266 151.03738188 91.38646443 167.53287575 80 180 C68.90828286 190.3506757 55.85351877 191.47899045 41.3984375 191.27734375 C31.05231463 190.91340068 21.58241597 188.34333078 14 181 C13.07960938 180.13761719 13.07960938 180.13761719 12.140625 179.2578125 C0.469681 167.2377377 -0.31265966 150.81260517 -0.22705078 134.98168945 C-0.22648541 133.50225329 -0.22680568 132.02281657 -0.22793579 130.54338074 C-0.2285054 126.56063784 -0.21681515 122.57801746 -0.20278788 118.59530282 C-0.19021463 114.42065329 -0.18910485 110.24600039 -0.18673706 106.07133484 C-0.18054156 98.18099682 -0.16415707 90.29071476 -0.14403808 82.40040129 C-0.12161874 73.41120783 -0.11067053 64.42201157 -0.10064721 55.43279707 C-0.07978896 36.95515995 -0.04313707 18.47759947 0 0 Z " fill="#FFFFFF" transform="translate(650,99)"/>
<path d="M0 0 C12.21 0 24.42 0 37 0 C37.029729 6.27511597 37.029729 6.27511597 37.06005859 12.67700195 C37.12703271 26.51514442 37.20457342 40.35321088 37.28752708 54.19126606 C37.33755369 62.57939664 37.38399738 70.96751793 37.421875 79.35571289 C37.45491554 86.67066501 37.4948125 93.98554288 37.54279006 101.30041283 C37.56793571 105.17011836 37.58975153 109.03977539 37.60334396 112.90954018 C37.61627354 116.55965135 37.63844252 120.20959519 37.66738319 123.85961342 C37.68062802 125.82197448 37.68435928 127.78439273 37.68769836 129.74679565 C37.5670081 142.4495745 37.5670081 142.4495745 42 154 C45.08202164 155.16617035 46.56437861 155.15196095 49.6875 154.0625 C53.58554289 150.58586715 53.87517914 145.97601067 54.19142532 140.96958923 C54.28619834 137.26955847 54.31278018 133.57429412 54.31884766 129.87304688 C54.32815874 128.45315996 54.33832915 127.03327846 54.34928894 125.61340332 C54.3764701 121.77930002 54.39170287 117.94523323 54.40471697 114.11105919 C54.42039981 110.09649876 54.44717348 106.08201229 54.4727478 102.06750488 C54.51944466 94.47461585 54.55623264 86.88171277 54.58942068 79.28875399 C54.62770649 70.64056143 54.67709964 61.99244332 54.72740483 53.34431362 C54.83058941 35.562924 54.91842739 17.78150281 55 0 C67.54 0 80.08 0 93 0 C93.04527276 18.51620899 93.08206216 37.03237266 93.10362434 55.54862309 C93.11390535 64.14742589 93.12790441 72.74619167 93.15087891 81.3449707 C93.1709106 88.84595642 93.18373947 96.34691531 93.18817699 103.84792703 C93.19076793 107.8139306 93.19679029 111.77985746 93.21146011 115.74583626 C93.2251992 119.49111125 93.22919028 123.23627912 93.22621536 126.98157692 C93.22701404 128.98615523 93.23768912 130.99072232 93.24884033 132.99526978 C93.21137317 149.7881769 91.68003988 166.63149894 80.2265625 179.84375 C69.96119903 189.78494409 57.62993552 191.49932167 43.921875 191.421875 C32.73055182 191.11811051 22.28543918 189.04284749 14 181 C13.07960937 180.12021484 13.07960937 180.12021484 12.140625 179.22265625 C0.72431732 167.29407835 -0.31063982 152.62304888 -0.22705078 136.91162109 C-0.2264856 135.41262825 -0.22680532 133.91363486 -0.22793579 132.41464233 C-0.22850613 128.37399167 -0.21680392 124.33346142 -0.20278788 120.29283857 C-0.19022691 116.05945933 -0.18910581 111.82607688 -0.18673706 107.59268188 C-0.18053799 99.58897988 -0.16414859 91.58533297 -0.14403808 83.58165514 C-0.12162995 74.46431305 -0.11067333 65.34696824 -0.10064721 56.22960544 C-0.07978086 37.48636611 -0.04312443 18.74320224 0 0 Z " fill="#FFFFFF" transform="translate(190,99)"/>
<path d="M0 0 C69.69509595 0 69.69509595 0 80 9 C94.69582477 24.52375856 93.61312405 48.17496654 93.24153137 68.09393311 C92.90521405 80.10782197 90.46534011 91.71039008 84 102 C83.46375 102.9075 82.9275 103.815 82.375 104.75 C70.13476123 116.34601568 55.03791252 115 39 115 C39 139.42 39 163.84 39 189 C26.13 189 13.26 189 0 189 C0 126.63 0 64.26 0 0 Z M39 35 C39 49.85 39 64.7 39 80 C48.06222192 78.82884167 48.06222192 78.82884167 51.5 76.375 C55.07963355 70.70724688 55.33609233 64.08399403 55.25 57.5625 C55.24323242 56.82040283 55.23646484 56.07830566 55.22949219 55.3137207 C55.12762011 45.81321964 55.12762011 45.81321964 51 37.5 C46.4681699 34.10112743 46.04838709 35 39 35 Z " fill="#FFFFFF" transform="translate(460,99)"/>
<path d="M0 0 C69.58868039 0 69.58868039 0 79.5 8.9375 C92.81727644 22.99135147 93.42852175 44.16219724 93.21875 62.421875 C92.80001029 77.48603619 90.77709345 94.62705764 80 106 C68.40195625 116.67800663 52.72708554 115 38 115 C38 139.42 38 163.84 38 189 C25.46 189 12.92 189 0 189 C0 126.63 0 64.26 0 0 Z M38 35 C38 49.85 38 64.7 38 80 C46.43341653 79.86474076 46.43341653 79.86474076 49.9375 76.6875 C54.70132776 70.48008806 54.33434138 65.32761492 54.3125 57.6875 C54.32861328 56.57181641 54.34472656 55.45613281 54.36132812 54.30664062 C54.3655212 47.23292819 54.08093478 41.67342224 49.375 36.0625 C46.06441134 34.38745091 46.06441134 34.38745091 38 35 Z " fill="#FFFFFF" transform="translate(88,99)"/>
<path d="M0 0 C25.41 0 50.82 0 77 0 C77 12.21 77 24.42 77 37 C64.46 37 51.92 37 39 37 C39 46.57 39 56.14 39 66 C50.88 66 62.76 66 75 66 C75 78.54 75 91.08 75 104 C63.12 104 51.24 104 39 104 C39 132.05 39 160.1 39 189 C26.13 189 13.26 189 0 189 C0 126.63 0 64.26 0 0 Z " fill="#FFFFFF" transform="translate(564,99)"/>
<path d="M0 0 C4.91615559 0.81082427 9.58793938 2.65631283 14.25 4.37109375 C14.25 5.03109375 14.25 5.69109375 14.25 6.37109375 C14.96027344 6.47679687 15.67054688 6.5825 16.40234375 6.69140625 C32.9588437 10.64316344 49.37638121 29.60592972 58.06640625 43.3671875 C62.25 50.45030167 62.25 50.45030167 62.25 54.37109375 C62.91 54.37109375 63.57 54.37109375 64.25 54.37109375 C66.60982042 63.07293155 66.60982042 63.07293155 66.25 67.37109375 C64.99960327 69.22949219 64.99960327 69.22949219 63.22412109 70.98046875 C62.56278168 71.6446582 61.90144226 72.30884766 61.22006226 72.99316406 C60.49517609 73.69538086 59.77028992 74.39759766 59.0234375 75.12109375 C58.28300201 75.85682617 57.54256653 76.59255859 56.7796936 77.35058594 C54.40624308 79.70267481 52.01574326 82.03659762 49.625 84.37109375 C48.03667321 85.94291255 46.44942046 87.51581747 44.86328125 89.08984375 C27.0003932 106.74602822 27.0003932 106.74602822 21.375 107.68359375 C20.59382812 107.82410156 19.81265625 107.96460938 19.0078125 108.109375 C18.42773438 108.19574219 17.84765625 108.28210938 17.25 108.37109375 C17.25 109.03109375 17.25 109.69109375 17.25 110.37109375 C7.68259044 112.51848828 -2.09531129 113.5977286 -11.75 111.37109375 C-11.75 110.71109375 -11.75 110.05109375 -11.75 109.37109375 C-13.02875 109.20609375 -14.3075 109.04109375 -15.625 108.87109375 C-23.91398716 107.05092121 -29.70095629 100.85195583 -34.75 94.37109375 C-35.41 93.77296875 -36.07 93.17484375 -36.75 92.55859375 C-45.0828066 83.44458654 -46.36814072 69.68105098 -46.1015625 57.87890625 C-45.59308467 52.80542744 -44.05725864 48.8721393 -41.75 44.37109375 C-41.38777344 43.55253906 -41.02554688 42.73398438 -40.65234375 41.890625 C-36.43909133 32.67859853 -30.29896537 25.27257226 -22.51171875 18.84375 C-20.71525565 17.39938171 -20.71525565 17.39938171 -19.14453125 15.6796875 C-17.75 14.37109375 -17.75 14.37109375 -15.75 14.37109375 C-15.48058594 13.78457031 -15.21117187 13.19804687 -14.93359375 12.59375 C-13.75154813 10.37400096 -12.46899616 8.69270007 -10.8125 6.80859375 C-10.30847656 6.22980469 -9.80445313 5.65101563 -9.28515625 5.0546875 C-8.77855469 4.49910156 -8.27195312 3.94351563 -7.75 3.37109375 C-7.25242187 2.81421875 -6.75484375 2.25734375 -6.2421875 1.68359375 C-4.25906093 -0.060727 -2.58349272 -0.09465383 0 0 Z " fill="#46CC7F" transform="translate(979.75,162.62890625)"/>
<path d="M0 0 C1.57055984 1.06266736 3.11329148 2.1676605 4.625 3.3125 C5.40488281 3.9003125 6.18476562 4.488125 6.98828125 5.09375 C15.90618927 12.40793339 21.58527846 21.96818463 24.3125 33.125 C25.49056584 45.14127152 24.16604028 57.38319027 17.1015625 67.58984375 C14.9327084 70.12017353 12.49879779 72.22348751 9.8828125 74.28125 C7.93726929 76.03156569 6.32832889 77.7677722 4.6328125 79.75 C-0.00153617 85.12638953 -4.98455958 90.14415038 -9.9921875 95.16992188 C-11.64264556 96.83025109 -13.28214951 98.50095378 -14.921875 100.171875 C-15.97330233 101.22981903 -17.02536236 102.28713473 -18.078125 103.34375 C-18.56565247 103.84362427 -19.05317993 104.34349854 -19.55548096 104.85852051 C-23.03225849 108.3125 -23.03225849 108.3125 -26.375 108.3125 C-27.30119141 106.57226562 -27.30119141 106.57226562 -28.24609375 104.796875 C-36.61594294 89.26715482 -46.13010479 75.0380471 -60.234375 64.09375 C-60.94078125 63.5059375 -61.6471875 62.918125 -62.375 62.3125 C-62.375 61.6525 -62.375 60.9925 -62.375 60.3125 C-63.07625 60.044375 -63.7775 59.77625 -64.5 59.5 C-68.35624773 57.90720202 -72.03573743 56.19884832 -75.5234375 53.890625 C-82.19625034 49.52846256 -88.55597556 47.70962976 -96.375 46.3125 C-96.375 42.3125 -96.375 42.3125 -94.88867188 40.65457153 C-94.21384766 40.11903656 -93.53902344 39.58350159 -92.84375 39.03173828 C-88.58682058 35.51465141 -84.73231245 31.75071961 -80.875 27.8046875 C-79.47945804 26.39163926 -78.08361567 24.97888766 -76.6875 23.56640625 C-74.52527189 21.37321897 -72.36548712 19.17778321 -70.2109375 16.97705078 C-68.10583231 14.82936506 -65.99117773 12.69145659 -63.875 10.5546875 C-63.24142578 9.90249237 -62.60785156 9.25029724 -61.95507812 8.57833862 C-46.10609719 -7.35977204 -19.9221712 -11.3005206 0 0 Z " fill="#FCFCFC" transform="translate(1082.375,108.6875)"/>
<path d="M0 0 C3.38060901 3.11371882 5.70920036 5.54087397 7 10 C7 10.99 7 11.98 7 13 C7.66 13 8.32 13 9 13 C11.35982042 21.7018378 11.35982042 21.7018378 11 26 C9.74960327 27.85839844 9.74960327 27.85839844 7.97412109 29.609375 C7.31278168 30.27356445 6.65144226 30.93775391 5.97006226 31.62207031 C5.24517609 32.32428711 4.52028992 33.02650391 3.7734375 33.75 C3.03300201 34.48573242 2.29256653 35.22146484 1.5296936 35.97949219 C-0.84375692 38.33158106 -3.23425674 40.66550387 -5.625 43 C-7.21332679 44.5718188 -8.80057954 46.14472372 -10.38671875 47.71875 C-28.2496068 65.37493447 -28.2496068 65.37493447 -33.875 66.3125 C-34.65617188 66.45300781 -35.43734375 66.59351563 -36.2421875 66.73828125 C-36.82226562 66.82464844 -37.40234375 66.91101563 -38 67 C-38 67.66 -38 68.32 -38 69 C-47.56740956 71.14739453 -57.34531129 72.22663485 -67 70 C-67 69.34 -67 68.68 -67 68 C-68.27875 67.835 -69.5575 67.67 -70.875 67.5 C-79.16398716 65.67982746 -84.95095629 59.48086208 -90 53 C-90.66 52.401875 -91.32 51.80375 -92 51.1875 C-96.76475181 45.9760527 -99.32924524 38.99689282 -100 32 C-99.54296875 29.734375 -99.54296875 29.734375 -99 28 C-98.50693359 28.74443359 -98.50693359 28.74443359 -98.00390625 29.50390625 C-92.14196934 37.87583241 -83.74453735 45.07976168 -73.62109375 47.58984375 C-65.7695669 48.81847314 -56.52626165 48.80360743 -49 46 C-48.34 45.01 -47.68 44.02 -47 43 C-45.845 42.46375 -44.69 41.9275 -43.5 41.375 C-38.84047561 39.17185532 -35.41910992 36.02270984 -31.6875 32.51171875 C-29.60594216 30.56630932 -27.50006098 28.70207685 -25.33984375 26.84765625 C-20.19796646 22.36708453 -15.38511007 17.56908734 -10.5625 12.75 C-9.65306641 11.8528125 -8.74363281 10.955625 -7.80664062 10.03125 C-6.94361328 9.17015625 -6.08058594 8.3090625 -5.19140625 7.421875 C-4.40967041 6.64424805 -3.62793457 5.86662109 -2.82250977 5.06542969 C-0.79646455 3.04034005 -0.79646455 3.04034005 0 0 Z " fill="#1E9A5A" transform="translate(1035,204)"/>
<path d="M0 0 C8.80815103 6.89495603 14.03620339 15.96628659 16.6875 26.8125 C17.86556584 38.82877152 16.54104028 51.07069027 9.4765625 61.27734375 C7.3077084 63.80767353 4.87379779 65.91098751 2.2578125 67.96875 C0.31226929 69.71906569 -1.29667111 71.4552722 -2.9921875 73.4375 C-7.62653617 78.81388953 -12.60955958 83.83165038 -17.6171875 88.85742188 C-19.26764556 90.51775109 -20.90714951 92.18845378 -22.546875 93.859375 C-23.59830233 94.91731903 -24.65036236 95.97463473 -25.703125 97.03125 C-26.19065247 97.53112427 -26.67817993 98.03099854 -27.18048096 98.54602051 C-30.65725849 102 -30.65725849 102 -34 102 C-34.28198242 101.49138428 -34.56396484 100.98276855 -34.85449219 100.45874023 C-36.15253179 98.11806972 -37.45126159 95.77778284 -38.75 93.4375 C-39.1934375 92.63763672 -39.636875 91.83777344 -40.09375 91.01367188 C-42.69722489 86.32358843 -45.32784091 81.65130495 -48 77 C-47.34 77 -46.68 77 -46 77 C-46 77.66 -46 78.32 -46 79 C-45.38125 78.505 -44.7625 78.01 -44.125 77.5 C-42 76 -42 76 -40 76 C-39.75016357 75.4234668 -39.50032715 74.84693359 -39.24291992 74.25292969 C-37.82641968 71.68536649 -36.21078033 70.00010232 -34.11328125 67.953125 C-33.33919922 67.19 -32.56511719 66.426875 -31.76757812 65.640625 C-30.55231445 64.45726562 -30.55231445 64.45726562 -29.3125 63.25 C-24.1918996 58.24207785 -19.19470438 53.22036685 -14.5300293 47.78173828 C-11.77740139 44.5762686 -8.88283577 41.49733452 -6.015625 38.39453125 C-1.88956404 33.4928348 -0.62136807 30.19848815 -0.48828125 23.73046875 C-0.47033005 23.04946609 -0.45237885 22.36846344 -0.43388367 21.66682434 C-0.38001369 19.5071112 -0.34596218 17.34761601 -0.3125 15.1875 C-0.27930609 13.71676669 -0.24481451 12.24606207 -0.20898438 10.77539062 C-0.12430284 7.18380313 -0.05738039 3.59213924 0 0 Z " fill="#D7D8CE" transform="translate(1090,115)"/>
<path d="M0 0 C3.41756151 -0.31068741 5.40106977 -0.3625104 8.375 1.4375 C10.37550935 4.59214935 10.86435869 6.64040053 10.72265625 10.35546875 C8.93172277 16.9093172 3.56427613 22.44498119 -1.1640625 27.15625 C-3.20996688 29.09160935 -3.20996688 29.09160935 -5.125 32.1875 C-6.87890199 34.3840271 -7.76230366 34.94340563 -10.54296875 35.60546875 C-13.03990863 35.84847136 -15.49197072 35.99026008 -18 36 C-20.85898366 31.71152451 -20.58727538 28.03047724 -20 23 C-16.76988309 14.92470771 -9.27481693 6.70354543 -2 2 C-1.34 2 -0.68 2 0 2 C0 1.34 0 0.68 0 0 Z " fill="#F2FBF6" transform="translate(969,175)"/>
<path d="M0 0 C7.91293947 6.85638221 9.39645394 22.15888266 11 32 C11.17660156 32.85078125 11.35320312 33.7015625 11.53515625 34.578125 C14.336552 48.77186347 13.48656667 62.05373332 10 76 C9.84789062 76.96421875 9.69578125 77.9284375 9.5390625 78.921875 C8.90487899 82.54315474 7.91208129 85.99918716 6.8125 89.5 C6.59762939 90.18835938 6.38275879 90.87671875 6.16137695 91.5859375 C3.90880719 98.6014275 1.04830381 105.29582667 -2 112 C-2.66 112 -3.32 112 -4 112 C-4.14115234 112.81791016 -4.14115234 112.81791016 -4.28515625 113.65234375 C-5.2025787 116.66529945 -6.71454388 118.92970842 -8.4375 121.5625 C-9.36369141 122.98755859 -9.36369141 122.98755859 -10.30859375 124.44140625 C-11.53516964 126.29685015 -12.76622399 128.14933599 -14 130 C-14.66 130 -15.32 130 -16 130 C-16.268125 130.804375 -16.53625 131.60875 -16.8125 132.4375 C-17.204375 133.283125 -17.59625 134.12875 -18 135 C-18.99 135.33 -19.98 135.66 -21 136 C-22.20882096 138.00016466 -22.20882096 138.00016466 -23 140 C-23.66 140 -24.32 140 -25 140 C-25.2475 140.58265625 -25.495 141.1653125 -25.75 141.765625 C-27.18525446 144.33114236 -28.77663013 145.83724798 -31 147.75 C-31.70125 148.36359375 -32.4025 148.9771875 -33.125 149.609375 C-35 151 -35 151 -37 151 C-37 150.34 -37 149.68 -37 149 C-36.34 149 -35.68 149 -35 149 C-34.773125 148.278125 -34.54625 147.55625 -34.3125 146.8125 C-31.82910614 141.49094174 -27.05129073 138.12974713 -22.55078125 134.52734375 C-20.81734514 132.82010566 -20.03381309 131.1859014 -19 129 C-17.68671343 127.64691687 -16.35500919 126.31129922 -15 125 C-14.67 124.34 -14.34 123.68 -14 123 C-13.34 123 -12.68 123 -12 123 C-11.71125 122.030625 -11.4225 121.06125 -11.125 120.0625 C-10 117 -10 117 -8 116 C-7.27809699 114.41868865 -6.56867969 112.8306634 -5.91796875 111.21875 C-4.85483474 108.64913247 -3.67808603 106.14391067 -2.5 103.625 C-0.30449062 98.82937076 1.43217048 94.03355792 3 89 C3.66 89 4.32 89 5 89 C4.96962646 87.97680664 4.93925293 86.95361328 4.90795898 85.89941406 C4.99567295 82.18331987 5.55059435 79.19369781 6.47265625 75.609375 C8.30856914 67.4262017 8.50359695 59.59148146 8.4375 51.25 C8.43645264 50.50764099 8.43540527 49.76528198 8.43432617 49.00042725 C8.40451743 38.7509111 7.74407247 29.02581361 4.875 19.1328125 C4 16 4 16 4 12 C3.34 12 2.68 12 2 12 C0.40861915 7.82262526 -0.21278058 4.46839215 0 0 Z " fill="#001606" transform="translate(1136,137)"/>
<path d="M0 0 C0.66 0 1.32 0 2 0 C1.99476318 1.27528564 1.98952637 2.55057129 1.98413086 3.86450195 C1.96589391 8.64118739 1.9545003 13.41786981 1.94506836 18.19458008 C1.94007058 20.25350463 1.93327013 22.31242569 1.92456055 24.37133789 C1.9122938 27.34782783 1.90672599 30.32427045 1.90234375 33.30078125 C1.89718246 34.2064534 1.89202118 35.11212555 1.88670349 36.04524231 C1.87306031 48.83729636 1.87306031 48.83729636 5.25 61.03515625 C6.07569825 63.19831364 6.50810356 65.28899921 6.9375 67.5625 C7.57451146 70.71489006 8.46982764 73.11637939 10.125 75.875 C12 79 12 79 12 82 C12.66 82 13.32 82 14 82 C15.76462683 85.08809695 16 86.23312136 16 90 C16.66 90 17.32 90 18 90 C20.83258179 92.97850267 22.87464318 95.8216459 23.3125 99.9375 C23.209375 100.618125 23.10625 101.29875 23 102 C22.34 102 21.68 102 21 102 C19.5393715 99.35261084 19 98.10551666 19 95 C17.68 94.34 16.36 93.68 15 93 C15 91.68 15 90.36 15 89 C13.515 88.505 13.515 88.505 12 88 C11.505 85.03 11.505 85.03 11 82 C10.34 82 9.68 82 9 82 C2.63812044 66.99556707 2.63812044 66.99556707 1.47367859 59.42100525 C1.01390312 57.07105982 0.32301437 55.02850255 -0.52807617 52.79516602 C-2.16046443 47.99822641 -2.42099675 43.68709784 -2.36328125 38.65234375 C-2.36377975 37.79620987 -2.36427826 36.94007599 -2.36479187 36.05799866 C-2.36246842 34.26219338 -2.35284321 32.46638378 -2.33618164 30.6706543 C-2.31252984 27.94094377 -2.31564171 25.21220943 -2.32226562 22.48242188 C-2.31668916 20.72655675 -2.30957948 18.97069569 -2.30078125 17.21484375 C-2.30169266 16.40941635 -2.30260406 15.60398895 -2.30354309 14.77415466 C-2.23895035 9.54835298 -1.44062528 5.02731266 0 0 Z " fill="#011F0B" transform="translate(902,162)"/>
<path d="M0 0 C0.88945313 0.04833984 1.77890625 0.09667969 2.6953125 0.14648438 C3.61570312 0.20255859 4.53609375 0.25863281 5.484375 0.31640625 C6.42023438 0.36861328 7.35609375 0.42082031 8.3203125 0.47460938 C10.62536387 0.6039745 12.92994789 0.73892659 15.234375 0.87890625 C15.234375 1.20890625 15.234375 1.53890625 15.234375 1.87890625 C14.57953125 1.92789063 13.9246875 1.976875 13.25 2.02734375 C7.19061092 2.52373438 1.24856349 3.29596697 -4.73828125 4.3515625 C-6.72105569 4.69694901 -8.70821699 5.01822411 -10.69921875 5.3125 C-32.63693938 8.60461478 -51.35335827 18.14799147 -68.453125 32.06640625 C-70.765625 33.87890625 -70.765625 33.87890625 -73.515625 35.50390625 C-75.88708309 36.68015665 -75.88708309 36.68015665 -76.765625 38.87890625 C-77.755625 38.87890625 -78.745625 38.87890625 -79.765625 38.87890625 C-79.765625 36.87890625 -79.765625 36.87890625 -78.3046875 35.37109375 C-77.67304687 34.83742187 -77.04140625 34.30375 -76.390625 33.75390625 C-75.76414062 33.21507812 -75.13765625 32.67625 -74.4921875 32.12109375 C-72.765625 30.87890625 -72.765625 30.87890625 -70.765625 30.87890625 C-70.435625 29.88890625 -70.105625 28.89890625 -69.765625 27.87890625 C-61.68199327 20.99828324 -47.77966666 9.87890625 -36.765625 9.87890625 C-36.765625 9.21890625 -36.765625 8.55890625 -36.765625 7.87890625 C-28.30840808 5.06698895 -20.07743909 2.47552833 -11.21875 1.23828125 C-8.84473198 0.94578736 -8.84473198 0.94578736 -6.91015625 0.34887695 C-4.49624678 -0.18012757 -2.46515752 -0.14222063 0 0 Z " fill="#011D0B" transform="translate(1013.765625,65.12109375)"/>
<path d="M0 0 C-0.61875 0.0825 -1.2375 0.165 -1.875 0.25 C-4.18437567 0.81258459 -4.18437567 0.81258459 -5.25 3.0625 C-5.62125 4.0215625 -5.62125 4.0215625 -6 5 C-7.32 5 -8.64 5 -10 5 C-10 5.66 -10 6.32 -10 7 C-12.64738916 8.4606285 -13.89448334 9 -17 9 C-17 9.66 -17 10.32 -17 11 C-34.339336 18.26619706 -50.32959212 23.7152051 -69.25 24.75 C-70.06001465 24.79463379 -70.8700293 24.83926758 -71.70458984 24.88525391 C-75.34634584 25.04145008 -78.49937672 25.00157264 -82 24 C-82 23.34 -82 22.68 -82 22 C-81.13310547 21.94465088 -80.26621094 21.88930176 -79.37304688 21.83227539 C-76.12259179 21.62358436 -72.87229207 21.41272192 -69.62207031 21.20043945 C-68.22173505 21.10941444 -66.82134503 21.01922738 -65.42089844 20.92993164 C-54.68362937 20.24494846 -54.68362937 20.24494846 -44 19 C-44 18.34 -44 17.68 -44 17 C-42.71416016 16.61908203 -42.71416016 16.61908203 -41.40234375 16.23046875 C-34.02389667 14.05849991 -34.02389667 14.05849991 -26.875 11.25 C-24 10 -24 10 -21 10 C-21 9.34 -21 8.68 -21 8 C-18.09399739 6.74335022 -16.20395416 6 -13 6 C-12.67 5.01 -12.34 4.02 -12 3 C-10.0390625 1.796875 -10.0390625 1.796875 -7.625 0.75 C-6.83351563 0.39421875 -6.04203125 0.0384375 -5.2265625 -0.328125 C-3 -1 -3 -1 0 0 Z " fill="#011D0B" transform="translate(1099,289)"/>
<path d="M0 0 C3.90165262 -0.07503178 7.24343544 0.02655979 11 1 C12.86076066 1.33758062 14.72168131 1.67437286 16.58422852 2.00195312 C23.25808079 3.18566134 29.67658555 4.4892325 36 7 C37.093125 7.433125 38.18625 7.86625 39.3125 8.3125 C44.6403971 10.66081484 49.80936473 13.36632792 55 16 C55 16.66 55 17.32 55 18 C55.66 18.04125 56.32 18.0825 57 18.125 C61.38913955 19.4051657 64.48526529 22.14809367 68 25 C64.98968256 25.93423645 64.13349732 26.04449911 61 25 C60.56816406 24.55527344 60.13632813 24.11054687 59.69140625 23.65234375 C53.31456426 17.42277294 43.25943752 14.06820654 35 11 C34.25443848 10.6788623 33.50887695 10.35772461 32.74072266 10.02685547 C29.80652453 8.92751133 27.01000301 8.31447115 23.9296875 7.74609375 C22.21458984 7.42415039 22.21458984 7.42415039 20.46484375 7.09570312 C18.68787109 6.76989258 18.68787109 6.76989258 16.875 6.4375 C14.51789796 6.00048054 12.16111082 5.56175822 9.8046875 5.12109375 C8.76296387 4.9295874 7.72124023 4.73808105 6.64794922 4.54077148 C4 4 4 4 1 3 C0.67 2.01 0.34 1.02 0 0 Z " fill="#001909" transform="translate(1031,65)"/>
<path d="M0 0 C3.625 0.25 3.625 0.25 5.32421875 1.4921875 C7.38039947 4.2708101 7.1016248 6.66565992 6.96484375 10.01953125 C6.42963761 13.53220605 5.42549435 15.07961688 2.625 17.25 C-0.33282677 17.85208727 -2.29022263 17.64803579 -5.375 17.25 C-7.84097251 13.55104124 -7.94397128 10.5423863 -7.375 6.25 C-4.47884301 0.33176615 -4.47884301 0.33176615 0 0 Z " fill="#F0FBF5" transform="translate(947.375,212.75)"/>
<path d="M0 0 C4.75513678 2.16716411 8.18723413 5.48805786 12 9 C12.63035156 9.56460938 13.26070312 10.12921875 13.91015625 10.7109375 C22.29554212 18.59698828 31.94067571 30.0970713 36 41 C35.505 41.99 35.505 41.99 35 43 C33 42 33 42 32 39 C31.34 38.67 30.68 38.34 30 38 C29.26924352 35.6859378 28.59861742 33.35171131 28 31 C27.34 31 26.68 31 26 31 C22 26.52941176 22 26.52941176 22 24 C21.34 24 20.68 24 20 24 C17 19.61538462 17 19.61538462 17 17 C16.443125 16.7525 15.88625 16.505 15.3125 16.25 C9.9796233 13.36736395 6.76421646 9.58816008 3.33203125 4.70703125 C2.09350754 2.86757563 2.09350754 2.86757563 0 2 C0 1.34 0 0.68 0 0 Z " fill="#001607" transform="translate(1099,91)"/>
<path d="M0 0 C0.66 0 1.32 0 2 0 C2 0.66 2 1.32 2 2 C3.65 2.33 5.3 2.66 7 3 C7.33 3.99 7.66 4.98 8 6 C9.76591887 7.00916033 9.76591887 7.00916033 12 8 C15.78420709 10.36512943 18.9507873 12.74750646 22 16 C22.639375 16.61875 23.27875 17.2375 23.9375 17.875 C26.4537821 20.46753307 28.71227573 23.20389256 31 26 C30.01 26.495 30.01 26.495 29 27 C28.34786708 29.02463255 28.34786708 29.02463255 28 31 C27.34 29.02 26.68 27.04 26 25 C25.34 25 24.68 25 24 25 C22.7734375 23.49609375 22.7734375 23.49609375 21.375 21.4375 C17.63787036 16.27713917 13.16810534 11.05603511 7 9 C7 8.34 7 7.68 7 7 C4.03 6.01 1.06 5.02 -2 4 C-1.01 3.67 -0.02 3.34 1 3 C0.67 2.01 0.34 1.02 0 0 Z " fill="#30A060" transform="translate(1082,93)"/>
<path d="M0 0 C0.66 0 1.32 0 2 0 C0.52877384 3.40353022 -1.36942513 5.61255749 -3.99072266 8.21777344 C-4.81142242 9.03832214 -5.63212219 9.85887085 -6.47769165 10.70428467 C-7.36419403 11.58046448 -8.25069641 12.45664429 -9.1640625 13.359375 C-10.07127045 14.26375305 -10.97847839 15.1681311 -11.91317749 16.09991455 C-14.31884419 18.49796458 -16.73045736 20.88994618 -19.14337158 23.28070068 C-21.60702344 25.72385171 -24.06498577 28.17271206 -26.5234375 30.62109375 C-31.34373573 35.41933788 -36.16969843 40.21182732 -41 45 C-41.66 44.67 -42.32 44.34 -43 44 C-41.625 42 -41.625 42 -40 40 C-39.34 40 -38.68 40 -38 40 C-37.34 38.68 -36.68 37.36 -36 36 C-35.34 36 -34.68 36 -34 36 C-33.7525 35.4225 -33.505 34.845 -33.25 34.25 C-31.81700012 31.67060021 -30.21575324 29.93878408 -28 28 C-27.34 28 -26.68 28 -26 28 C-25.773125 27.443125 -25.54625 26.88625 -25.3125 26.3125 C-23.62449964 23.33840412 -21.53323483 21.27991135 -19 19 C-18.34 19 -17.68 19 -17 19 C-16.67 18.01 -16.34 17.02 -16 16 C-14.91333068 14.84541384 -13.81571407 13.69936092 -12.66796875 12.60546875 C-11.33330622 11.320817 -10.03020504 10.00340587 -8.73828125 8.67578125 C-7.93777344 7.85464844 -7.13726563 7.03351563 -6.3125 6.1875 C-5.16201172 5.00220703 -5.16201172 5.00220703 -3.98828125 3.79296875 C-2 2 -2 2 0 2 C0 1.34 0 0.68 0 0 Z " fill="#135F34" transform="translate(1017,105)"/>
<path d="M0 0 C-0.33 0.66 -0.66 1.32 -1 2 C-3.80061836 2.80845737 -6.52602548 3.47497046 -9.375 4.0625 C-10.21683838 4.2380542 -11.05867676 4.4136084 -11.92602539 4.59448242 C-21.52491375 6.47188718 -33.43907924 8.71328811 -43 6 C-43 5.34 -43 4.68 -43 4 C-42.13310547 3.9498877 -41.26621094 3.89977539 -40.37304688 3.84814453 C-37.12232414 3.65659339 -33.87210639 3.45821557 -30.62207031 3.25537109 C-29.2218424 3.16934697 -27.82144985 3.08595707 -26.42089844 3.00537109 C-17.75237009 2.50455027 -8.47168151 -0.52948009 0 0 Z " fill="#050D03" transform="translate(1060,307)"/>
<path d="M0 0 C4.92498341 1.19393537 7.18536983 4.2274645 10.28515625 7.96484375 C11.76265163 9.71831777 13.27686097 11.29903944 14.9375 12.875 C17 15 17 15 17 17 C17.721875 17.226875 18.44375 17.45375 19.1875 17.6875 C22.56432417 19.26335128 24.55767039 21.20876616 27 24 C27 24.66 27 25.32 27 26 C23.01328937 24.63312778 20.11505367 22.84804907 17 20 C17 19.34 17 18.68 17 18 C16.4225 17.74863281 15.845 17.49726563 15.25 17.23828125 C9.12677517 13.86838148 2.206041 6.61812299 0 0 Z " fill="#011507" transform="translate(925,264)"/>
<path d="M0 0 C0.99 0.33 1.98 0.66 3 1 C3.11118149 7.63382908 3.01525138 14.24786708 2.6875 20.875 C2.62949219 22.08929688 2.57148437 23.30359375 2.51171875 24.5546875 C1.96084048 28.26365414 0.9333442 30.80162812 -1 34 C-1.99 34.495 -1.99 34.495 -3 35 C-2.86722656 34.40058594 -2.73445313 33.80117187 -2.59765625 33.18359375 C-0.46270834 22.2283501 -0.34791403 11.12759167 0 0 Z " fill="#011A08" transform="translate(1145,182)"/>
<path d="M0 0 C-3.30887477 1.08774504 -5.44822954 0.85318108 -8.8125 0.0625 C-19.24039936 -1.97561688 -29.1154311 -2.02084159 -39 2 C-39.66 2 -40.32 2 -41 2 C-41 1.34 -41 0.68 -41 0 C-28.90552663 -6.46913692 -12.20145802 -6.14185752 0 0 Z " fill="#738E7F" transform="translate(1077,105)"/>
<path d="M0 0 C19.77006508 -0.81995662 19.77006508 -0.81995662 27 4 C27 4.66 27 5.32 27 6 C21.13527887 6.2384033 15.84910413 5.35909584 10.125 4.125 C9.25875 3.95097656 8.3925 3.77695312 7.5 3.59765625 C6.67757812 3.42363281 5.85515625 3.24960937 5.0078125 3.0703125 C4.26160645 2.91320801 3.51540039 2.75610352 2.74658203 2.59423828 C1 2 1 2 0 0 Z " fill="#001C0A" transform="translate(988,307)"/>
<path d="M0 0 C5.23024786 0.36703494 8.50623364 1.01726725 13.00390625 3.89453125 C16.32188937 5.73208354 19.93734086 6.74576027 23.546875 7.875 C26.33081667 9.1517121 27.3956003 10.43296048 29 13 C23.38453056 12.07317495 18.78205185 11.23111611 14 8 C12.88625 7.525625 11.7725 7.05125 10.625 6.5625 C6.87238567 4.94499382 3.51184356 3.07843802 0 1 C0 0.67 0 0.34 0 0 Z " fill="#05260F" transform="translate(957,294)"/>
<path d="M0 0 C0.66 0 1.32 0 2 0 C1.93941406 0.59425781 1.87882813 1.18851563 1.81640625 1.80078125 C1.73261719 2.62964844 1.64882813 3.45851562 1.5625 4.3125 C1.48128906 5.11300781 1.40007813 5.91351563 1.31640625 6.73828125 C1.21199219 7.81464844 1.10757813 8.89101562 1 10 C0.91548584 10.74531982 0.83097168 11.49063965 0.74389648 12.25854492 C-0.11270679 20.40425676 -0.11439338 28.50499069 -0.0625 36.6875 C-0.05747028 38.08268067 -0.05291 39.47786311 -0.04882812 40.87304688 C-0.03714751 44.24874437 -0.02076833 47.62434826 0 51 C-2.60719279 47.08921082 -2.28763455 43.77435673 -2.265625 39.23828125 C-2.26753845 38.37365768 -2.2694519 37.50903412 -2.27142334 36.61820984 C-2.27278467 34.78656728 -2.26909184 32.95491505 -2.26074219 31.12329102 C-2.25010675 28.34043218 -2.2606054 25.55822849 -2.2734375 22.77539062 C-2.27211463 20.99218609 -2.26954959 19.20898196 -2.265625 17.42578125 C-2.26967346 16.60153152 -2.27372192 15.7772818 -2.27789307 14.92805481 C-2.23570882 9.63827889 -1.46652459 5.08659758 0 0 Z " fill="#010802" transform="translate(902,162)"/>
<path d="M0 0 C0.85331909 0.21329956 0.85331909 0.21329956 1.72387695 0.4309082 C8.93037918 2.0691084 15.81865914 2.2677338 23.1875 2.1875 C24.32380859 2.18685547 25.46011719 2.18621094 26.63085938 2.18554688 C32.18558399 2.15639672 37.5301037 1.9894892 43 1 C42.67 1.66 42.34 2.32 42 3 C31.41049898 5.73604333 19.72408921 6.02188711 9 4 C9 4.66 9 5.32 9 6 C5.06326356 4.68775452 2.77280706 3.08089673 0 0 Z " fill="#24854E" transform="translate(958,281)"/>
<path d="M0 0 C0.67578125 1.734375 0.67578125 1.734375 1 4 C-0.14453125 6.140625 -0.14453125 6.140625 -1.8125 8.25 C-2.35519531 8.95640625 -2.89789062 9.6628125 -3.45703125 10.390625 C-3.96621094 10.92171875 -4.47539063 11.4528125 -5 12 C-5.66 12 -6.32 12 -7 12 C-7.226875 12.94875 -7.45375 13.8975 -7.6875 14.875 C-9 18 -9 18 -11.625 19.375 C-12.800625 19.684375 -12.800625 19.684375 -14 20 C-12.56007449 15.89771221 -10.55506592 12.69601883 -8 9.1875 C-7.29875 8.21167969 -6.5975 7.23585938 -5.875 6.23046875 C-5.25625 5.49441406 -4.6375 4.75835937 -4 4 C-3.34 4 -2.68 4 -2 4 C-1.34 2.68 -0.68 1.36 0 0 Z " fill="#031909" transform="translate(932,105)"/>
<path d="M0 0 C0.66 0.33 1.32 0.66 2 1 C1.3503125 1.5878125 1.3503125 1.5878125 0.6875 2.1875 C-1.12276355 3.96688437 -1.12276355 3.96688437 -2.25 6.4375 C-4.6405169 9.93789975 -7.28091854 11.00271551 -11 13 C-11.33 13.66 -11.66 14.32 -12 15 C-12.99 15 -13.98 15 -15 15 C-15 13 -15 13 -13.5390625 11.4921875 C-12.59160156 10.69167969 -12.59160156 10.69167969 -11.625 9.875 C-10.99851562 9.33617188 -10.37203125 8.79734375 -9.7265625 8.2421875 C-8 7 -8 7 -6 7 C-5.67 6.01 -5.34 5.02 -5 4 C-3.37667033 2.61423077 -1.71275535 1.27358732 0 0 Z " fill="#001306" transform="translate(949,89)"/>
<path d="M0 0 C0 0.33 0 0.66 0 1 C-3.63 1 -7.26 1 -11 1 C-11 1.66 -11 2.32 -11 3 C-13.62315032 4.31157516 -15.23033436 3.89649988 -18.125 3.5625 C-19.03507813 3.46066406 -19.94515625 3.35882813 -20.8828125 3.25390625 C-21.58148437 3.17011719 -22.28015625 3.08632813 -23 3 C-23 2.34 -23 1.68 -23 1 C-15.307359 0.15199233 -7.73708326 -0.12152487 0 0 Z " fill="#0B1F0B" transform="translate(1040,310)"/>
<path d="M0 0 C0.99 0.33 1.98 0.66 3 1 C3.08107583 2.93681161 3.13922475 4.8745934 3.1875 6.8125 C3.23970703 8.43091797 3.23970703 8.43091797 3.29296875 10.08203125 C3 13 3 13 0 16 C0 10.72 0 5.44 0 0 Z " fill="#00340D" transform="translate(1145,182)"/>
<path d="M0 0 C0.66 0 1.32 0 2 0 C1.93941406 0.59425781 1.87882813 1.18851563 1.81640625 1.80078125 C1.16982122 8.19699929 0.57215654 14.59671614 0 21 C-2 19 -2 19 -2.265625 16.6796875 C-2.23267756 10.76562173 -1.71071256 5.66673537 0 0 Z " fill="#001705" transform="translate(902,162)"/>
<path d="M0 0 C0.66 0 1.32 0 2 0 C1.88637738 1.4800841 1.75877092 2.95910074 1.625 4.4375 C1.55539062 5.26121094 1.48578125 6.08492187 1.4140625 6.93359375 C1.27742188 7.61550781 1.14078125 8.29742187 1 9 C0.01 9.495 0.01 9.495 -1 10 C-2.05352843 12.30965848 -3.05719096 14.6429774 -4 17 C-4.66 17 -5.32 17 -6 17 C-4.14506608 11.28062041 -2.06896109 5.64444725 0 0 Z " fill="#002810" transform="translate(1139,226)"/>
<path d="M0 0 C0.66 0.33 1.32 0.66 2 1 C0.63560848 6.15436796 -2.72573615 9.06648401 -7 12 C-7.66 12 -8.32 12 -9 12 C-7.43930994 8.16921531 -4.93185886 5.85856238 -2 3 C-1.34 2.01 -0.68 1.02 0 0 Z " fill="#38AF6A" transform="translate(955,183)"/>
<path d="M0 0 C3 0 3 0 4.38671875 1.3125 C5.59114583 2.875 6.79557292 4.4375 8 6 C7.01 6.495 7.01 6.495 6 7 C5.34786708 9.02463255 5.34786708 9.02463255 5 11 C4.34 9.02 3.68 7.04 3 5 C2.34 5 1.68 5 1 5 C0.67 3.35 0.34 1.7 0 0 Z " fill="#34A966" transform="translate(1105,113)"/>
<path d="M0 0 C0 0.66 0 1.32 0 2 C0.99 2.33 1.98 2.66 3 3 C-3.6 3 -10.2 3 -17 3 C-13.75378035 0.83585357 -12.30136005 0.65090516 -8.5 0.375 C-7.06140625 0.26285156 -7.06140625 0.26285156 -5.59375 0.1484375 C-3.73155727 0.04186623 -1.86523972 0 0 0 Z " fill="#003113" transform="translate(1032,66)"/>
<path d="M0 0 C0 4.08321607 -1.57888255 5.10217106 -4.3125 8.0625 C-5.11300781 8.94035156 -5.91351562 9.81820312 -6.73828125 10.72265625 C-9 13 -9 13 -12 15 C-10.42921185 11.31766057 -8.13566869 8.74453885 -5.4375 5.8125 C-4.63183594 4.93207031 -3.82617188 4.05164063 -2.99609375 3.14453125 C-1 1 -1 1 0 0 Z " fill="#125F34" transform="translate(945,178)"/>
<path d="M0 0 C5.61 0 11.22 0 17 0 C17 0.33 17 0.66 17 1 C16.24074219 1.06058594 15.48148438 1.12117188 14.69921875 1.18359375 C13.70535156 1.26738281 12.71148438 1.35117188 11.6875 1.4375 C10.70136719 1.51871094 9.71523438 1.59992188 8.69921875 1.68359375 C5.90624401 1.91812559 5.90624401 1.91812559 3 3 C1.43881572 3.06740865 -0.1250252 3.08514456 -1.6875 3.0625 C-2.89986328 3.04896484 -2.89986328 3.04896484 -4.13671875 3.03515625 C-5.05904297 3.01775391 -5.05904297 3.01775391 -6 3 C-6 2.67 -6 2.34 -6 2 C-4.02 2 -2.04 2 0 2 C0 1.34 0 0.68 0 0 Z " fill="#04260A" transform="translate(1012,66)"/>
<path d="M0 0 C1.60568666 0.28317926 3.20952047 0.57687791 4.8125 0.875 C6.15248047 1.11863281 6.15248047 1.11863281 7.51953125 1.3671875 C10 2 10 2 13 4 C11.68 4 10.36 4 9 4 C9 4.66 9 5.32 9 6 C5.06326356 4.68775452 2.77280706 3.08089673 0 0 Z " fill="#33A462" transform="translate(958,281)"/>
<path d="M0 0 C0.66 0.33 1.32 0.66 2 1 C2.28571429 8.42857143 2.28571429 8.42857143 0 12 C-0.66 12 -1.32 12 -2 12 C-2.33 13.32 -2.66 14.64 -3 16 C-3.66 15.67 -4.32 15.34 -5 15 C-4.360625 14.195625 -3.72125 13.39125 -3.0625 12.5625 C-0.40147674 8.64148693 -0.20593653 4.63357199 0 0 Z " fill="#78DCA3" transform="translate(979,179)"/>
<path d="M0 0 C0.33 0 0.66 0 1 0 C1.33 7.26 1.66 14.52 2 22 C1.67 21.34 1.34 20.68 1 20 C0.34 20 -0.32 20 -1 20 C-0.67 13.4 -0.34 6.8 0 0 Z " fill="#267F4C" transform="translate(923,221)"/>
<path d="M0 0 C0.33 0 0.66 0 1 0 C1.27429625 5.39449293 1.36055646 8.51925805 -2 13 C-2.66 12.34 -3.32 11.68 -4 11 C-2.68 7.37 -1.36 3.74 0 0 Z " fill="#001306" transform="translate(907,146)"/>
<path d="M0 0 C0.66 0.33 1.32 0.66 2 1 C-0.97 3.97 -3.94 6.94 -7 10 C-7.33 8.68 -7.66 7.36 -8 6 C-7.38125 5.9175 -6.7625 5.835 -6.125 5.75 C-3.8234856 5.20005805 -3.8234856 5.20005805 -2.875 3 C-2.441875 2.01 -2.441875 2.01 -2 1 C-1.34 0.67 -0.68 0.34 0 0 Z " fill="#003013" transform="translate(941,99)"/>
<path d="M0 0 C1.7717719 0.06016203 3.54258679 0.14899328 5.3125 0.25 C6.79169922 0.31960938 6.79169922 0.31960938 8.30078125 0.390625 C11 1 11 1 12.85546875 3.046875 C13.23316406 3.69140625 13.61085938 4.3359375 14 5 C12.41439607 4.74279326 10.83154076 4.46861201 9.25 4.1875 C8.36828125 4.03667969 7.4865625 3.88585937 6.578125 3.73046875 C3.8089089 2.94585752 2.1740599 1.85404641 0 0 Z " fill="#000E05" transform="translate(972,302)"/>
<path d="M0 0 C7.10993658 0.2410148 7.10993658 0.2410148 9.64453125 2.40234375 C11 4.0625 11 4.0625 13 7 C9.70319035 6.34215037 7.15882078 5.10579427 4.25 3.4375 C3.45078125 2.98246094 2.6515625 2.52742188 1.828125 2.05859375 C1.22484375 1.70925781 0.6215625 1.35992187 0 1 C0 0.67 0 0.34 0 0 Z " fill="#021106" transform="translate(957,294)"/>
<path d="M0 0 C0 3 0 3 -1 6 C1.31 6.33 3.62 6.66 6 7 C2.42355152 8.2380014 -0.33694766 7.74926071 -4 7 C-4 5.68 -4 4.36 -4 3 C-2 1.25 -2 1.25 0 0 Z " fill="#A6B5AC" transform="translate(990,148)"/>
<path d="M0 0 C4.83628305 0.99043705 9.47618873 1.95698846 14 4 C14 4.33 14 4.66 14 5 C8.13551546 4.7444669 4.34242429 4.34242429 0 0 Z " fill="#0A0D04" transform="translate(1060,71)"/>
<path d="M0 0 C3.88862987 1.26117725 5.89375599 2.45264167 8 6 C8 6.66 8 7.32 8 8 C5.525 7.01 5.525 7.01 3 6 C3 5.01 3 4.02 3 3 C2.01 2.67 1.02 2.34 0 2 C0 1.34 0 0.68 0 0 Z " fill="#021D0B" transform="translate(944,282)"/>
<path d="M0 0 C0.66 0.33 1.32 0.66 2 1 C-0.97 4.3 -3.94 7.6 -7 11 C-7.66 10.67 -8.32 10.34 -9 10 C-6.1310659 6.49352499 -3.2682346 3.14718888 0 0 Z " fill="#33A765" transform="translate(1060,230)"/>
<path d="M0 0 C3.03869411 1.51934706 3.64410306 3.98004772 5 7 C5 7.66 5 8.32 5 9 C5.66 9 6.32 9 7 9 C7 9.66 7 10.32 7 11 C6.01 11 5.02 11 4 11 C3.67 9.68 3.34 8.36 3 7 C2.34 7 1.68 7 1 7 C0.67 4.69 0.34 2.38 0 0 Z " fill="#6F8874" transform="translate(1051,208)"/>
<path d="M0 0 C0 3.63053243 -1.2278255 4.95750337 -3.5546875 7.63671875 C-5.49136818 9.46347972 -7.46012234 10.27432067 -10 11 C-9.04882866 9.8274869 -8.08882991 8.66212985 -7.125 7.5 C-6.32449219 6.52546875 -6.32449219 6.52546875 -5.5078125 5.53125 C-5.01023437 5.0259375 -4.51265625 4.520625 -4 4 C-3.34 4 -2.68 4 -2 4 C-1.34 2.68 -0.68 1.36 0 0 Z " fill="#2F9D5E" transform="translate(1098,192)"/>
<path d="M0 0 C-0.61875 0.0825 -1.2375 0.165 -1.875 0.25 C-4.18437567 0.81258459 -4.18437567 0.81258459 -5.25 3.0625 C-5.4975 3.701875 -5.745 4.34125 -6 5 C-6.99 4.67 -7.98 4.34 -9 4 C-8 1 -8 1 -5.625 -0.25 C-3 -1 -3 -1 0 0 Z " fill="#021407" transform="translate(1099,289)"/>
<path d="M0 0 C-0.99 0.33 -1.98 0.66 -3 1 C-3 1.66 -3 2.32 -3 3 C-6.63 3 -10.26 3 -14 3 C-8.91255851 0.45627925 -5.67638973 -0.12900886 0 0 Z " fill="#010802" transform="translate(1015,65)"/>
<path d="M0 0 C0.93423645 3.01031744 1.04449911 3.86650268 0 7 C-0.66 7 -1.32 7 -2 7 C-2.33 8.32 -2.66 9.64 -3 11 C-4 8 -4 8 -3.22265625 5.95703125 C-2.83980469 5.24933594 -2.45695313 4.54164063 -2.0625 3.8125 C-1.68222656 3.09707031 -1.30195312 2.38164062 -0.91015625 1.64453125 C-0.60980469 1.10183594 -0.30945313 0.55914062 0 0 Z " fill="#001204" transform="translate(912,135)"/>
<path d="M0 0 C2.97 0.33 5.94 0.66 9 1 C9 1.66 9 2.32 9 3 C2.84765625 2.4140625 2.84765625 2.4140625 1 2 C0.67 1.34 0.34 0.68 0 0 Z " fill="#000F03" transform="translate(988,307)"/>
<path d="M0 0 C0.33 0 0.66 0 1 0 C1.08090971 1.62418745 1.13914995 3.24951745 1.1875 4.875 C1.22230469 5.77992188 1.25710938 6.68484375 1.29296875 7.6171875 C1.19628906 8.40351563 1.09960938 9.18984375 1 10 C0.01 10.66 -0.98 11.32 -2 12 C-1.34 8.04 -0.68 4.08 0 0 Z " fill="#002D12" transform="translate(1144,205)"/>
<path d="M0 0 C0 0.99 0 1.98 0 3 C-2.25 4.75 -2.25 4.75 -5 6 C-6.32 5.67 -7.64 5.34 -9 5 C-6.03 3.35 -3.06 1.7 0 0 Z " fill="#000B04" transform="translate(969,77)"/>
<path d="M0 0 C0.99 0 1.98 0 3 0 C1.86280581 3.41158256 0.95657056 4.11854601 -2 6 C-2.66 6 -3.32 6 -4 6 C-4 5.34 -4 4.68 -4 4 C-3.34 4 -2.68 4 -2 4 C-1.34 2.68 -0.68 1.36 0 0 Z " fill="#000B03" transform="translate(1103,282)"/>
<path d="M0 0 C0.66 0.33 1.32 0.66 2 1 C0.02 3.97 0.02 3.97 -2 7 C-3.32 6.67 -4.64 6.34 -6 6 C-4 4 -2 2 0 0 Z " fill="#002910" transform="translate(1109,275)"/>
<path d="M0 0 C0.88492145 2.47778006 1.11637742 3.66056586 0.25 6.1875 C-1 8 -1 8 -4 9 C-2.94124926 5.59687262 -1.99097846 2.98646769 0 0 Z " fill="#001205" transform="translate(917,125)"/>
</svg>
