<svg xmlns="http://www.w3.org/2000/svg" xmlns:xlink="http://www.w3.org/1999/xlink" width="1200" zoomAndPan="magnify" viewBox="0 0 900 299.999988" height="400" preserveAspectRatio="xMidYMid meet" version="1.2"><defs/><g id="a756cd6c3c"><g style="fill:#00bf63;fill-opacity:1;"><g transform="translate(158.185553, 217.995312)"><path style="stroke:none" d="M 6.28125 -141.8125 L 43.75 -141.8125 C 55.082031 -141.8125 63.171875 -138.148438 68.015625 -130.828125 C 72.859375 -123.515625 75.28125 -112.8125 75.28125 -98.71875 C 75.28125 -84.632812 73.132812 -74.015625 68.84375 -66.859375 C 64.550781 -59.703125 56.847656 -56.125 45.734375 -56.125 L 34.171875 -56.125 L 34.171875 0 L 6.28125 0 Z M 35.828125 -81.71875 C 39.234375 -81.71875 41.734375 -82.347656 43.328125 -83.609375 C 44.929688 -84.878906 45.976562 -86.695312 46.46875 -89.0625 C 46.96875 -91.4375 47.21875 -94.820312 47.21875 -99.21875 C 47.21875 -105.164062 46.554688 -109.457031 45.234375 -112.09375 C 43.910156 -114.738281 41.269531 -116.0625 37.3125 -116.0625 L 34.171875 -116.0625 L 34.171875 -81.71875 Z M 35.828125 -81.71875 "/></g></g><g style="fill:#00bf63;fill-opacity:1;"><g transform="translate(236.109787, 217.995312)"><path style="stroke:none" d="M 39.125 1.328125 C 27.457031 1.328125 18.789062 -1.972656 13.125 -8.578125 C 7.457031 -15.179688 4.625 -24.976562 4.625 -37.96875 L 4.625 -141.8125 L 32.1875 -141.8125 L 32.1875 -39.125 C 32.1875 -34.613281 32.625 -31.09375 33.5 -28.5625 C 34.382812 -26.03125 36.257812 -24.765625 39.125 -24.765625 C 41.988281 -24.765625 43.859375 -26 44.734375 -28.46875 C 45.617188 -30.945312 46.0625 -34.5 46.0625 -39.125 L 46.0625 -141.8125 L 73.625 -141.8125 L 73.625 -37.96875 C 73.625 -24.976562 70.789062 -15.179688 65.125 -8.578125 C 59.457031 -1.972656 50.789062 1.328125 39.125 1.328125 Z M 39.125 1.328125 "/></g></g><g style="fill:#00bf63;fill-opacity:1;"><g transform="translate(314.364205, 217.995312)"><path style="stroke:none" d="M 6.28125 0 L 6.28125 -141.8125 L 49.53125 -141.8125 L 61.421875 -55.3125 L 73.296875 -141.8125 L 116.890625 -141.8125 L 116.890625 0 L 90.96875 0 L 90.96875 -102.1875 L 74.625 0 L 49.203125 0 L 31.859375 -102.1875 L 31.859375 0 Z M 6.28125 0 "/></g></g><g style="fill:#00bf63;fill-opacity:1;"><g transform="translate(437.524115, 217.995312)"><path style="stroke:none" d="M 6.28125 -141.8125 L 43.75 -141.8125 C 55.082031 -141.8125 63.171875 -138.148438 68.015625 -130.828125 C 72.859375 -123.515625 75.28125 -112.8125 75.28125 -98.71875 C 75.28125 -84.632812 73.132812 -74.015625 68.84375 -66.859375 C 64.550781 -59.703125 56.847656 -56.125 45.734375 -56.125 L 34.171875 -56.125 L 34.171875 0 L 6.28125 0 Z M 35.828125 -81.71875 C 39.234375 -81.71875 41.734375 -82.347656 43.328125 -83.609375 C 44.929688 -84.878906 45.976562 -86.695312 46.46875 -89.0625 C 46.96875 -91.4375 47.21875 -94.820312 47.21875 -99.21875 C 47.21875 -105.164062 46.554688 -109.457031 45.234375 -112.09375 C 43.910156 -114.738281 41.269531 -116.0625 37.3125 -116.0625 L 34.171875 -116.0625 L 34.171875 -81.71875 Z M 35.828125 -81.71875 "/></g></g><g style="fill:#00bf63;fill-opacity:1;"><g transform="translate(515.448349, 217.995312)"><path style="stroke:none" d="M 6.28125 0 L 6.28125 -141.8125 L 63.0625 -141.8125 L 63.0625 -114.25 L 34.828125 -114.25 L 34.828125 -91.625 L 61.578125 -91.625 L 61.578125 -64.390625 L 34.828125 -64.390625 L 34.828125 0 Z M 6.28125 0 "/></g></g><g style="fill:#00bf63;fill-opacity:1;"><g transform="translate(581.320742, 217.995312)"><path style="stroke:none" d="M 39.125 1.328125 C 27.457031 1.328125 18.789062 -1.972656 13.125 -8.578125 C 7.457031 -15.179688 4.625 -24.976562 4.625 -37.96875 L 4.625 -141.8125 L 32.1875 -141.8125 L 32.1875 -39.125 C 32.1875 -34.613281 32.625 -31.09375 33.5 -28.5625 C 34.382812 -26.03125 36.257812 -24.765625 39.125 -24.765625 C 41.988281 -24.765625 43.859375 -26 44.734375 -28.46875 C 45.617188 -30.945312 46.0625 -34.5 46.0625 -39.125 L 46.0625 -141.8125 L 73.625 -141.8125 L 73.625 -37.96875 C 73.625 -24.976562 70.789062 -15.179688 65.125 -8.578125 C 59.457031 -1.972656 50.789062 1.328125 39.125 1.328125 Z M 39.125 1.328125 "/></g></g><g style="fill:#00bf63;fill-opacity:1;"><g transform="translate(659.57516, 217.995312)"><path style="stroke:none" d="M 6.28125 0 L 6.28125 -141.8125 L 35.5 -141.8125 L 48.53125 -73.96875 L 48.53125 -141.8125 L 75.9375 -141.8125 L 75.9375 0 L 48.203125 0 L 34.015625 -70.984375 L 34.015625 0 Z M 6.28125 0 "/></g></g></g></svg>