<?xml version="1.0" standalone="no"?>
<!DOCTYPE svg PUBLIC "-//W3C//DTD SVG 20010904//EN"
 "http://www.w3.org/TR/2001/REC-SVG-20010904/DTD/svg10.dtd">
<svg version="1.0" xmlns="http://www.w3.org/2000/svg"
 width="257.000000pt" height="257.000000pt" viewBox="0 0 257.000000 257.000000"
 preserveAspectRatio="xMidYMid meet">
<metadata>
Created by potrace 1.14, written by Peter Selinger 2001-2017
</metadata>
<g transform="translate(0.000000,257.000000) scale(0.100000,-0.100000)"
fill="#000000" stroke="none">
<path d="M1165 2301 c-72 -29 -131 -69 -204 -138 l-72 -68 -92 -1 c-98 -1
-277 -13 -311 -20 -21 -5 -111 -12 -216 -18 -37 -2 -78 -14 -121 -34 -60 -29
-69 -37 -88 -81 -11 -27 -21 -62 -21 -76 0 -32 60 -126 114 -178 34 -33 186
-127 205 -127 4 0 25 -9 47 -19 21 -10 65 -25 97 -32 31 -8 57 -19 57 -25 0
-20 -22 -74 -30 -74 -10 0 -28 -46 -33 -85 -3 -16 -11 -43 -18 -58 -10 -23
-10 -35 1 -65 22 -60 15 -82 -49 -150 -58 -62 -58 -63 -54 -114 2 -29 10 -62
17 -73 7 -11 16 -42 20 -70 15 -117 162 -312 283 -377 47 -26 241 -93 295
-102 15 -2 31 -7 35 -9 5 -3 30 -8 57 -11 27 -4 52 -9 55 -10 3 -2 33 -7 66
-11 32 -3 62 -8 65 -10 20 -12 278 -20 383 -11 209 18 479 181 590 358 45 71
124 253 132 303 10 61 7 157 -6 211 -6 27 -10 76 -9 109 1 33 3 108 3 167 l2
107 41 43 c56 58 101 133 114 192 8 39 8 51 -2 57 -18 12 -25 0 -31 -49 -2
-23 -12 -51 -22 -62 -19 -21 -35 -19 -18 2 15 20 22 57 12 64 -5 3 4 24 21 47
35 48 39 97 12 167 -17 44 -52 68 -52 36 0 -16 -74 -58 -122 -70 -21 -5 -30
-2 -37 13 -8 15 -18 18 -50 14 -37 -4 -83 15 -111 47 -11 11 -157 108 -188
124 -19 10 -53 38 -77 64 -42 45 -46 47 -102 47 -38 1 -97 14 -172 38 -109 35
-120 37 -245 36 -97 -1 -142 -5 -171 -18z m774 -464 c-2 -1 -13 -9 -24 -17
-19 -14 -19 -14 -6 3 7 9 18 17 24 17 6 0 8 -1 6 -3z m220 -207 c26 0 5 -9
-32 -14 -38 -5 -53 5 -43 29 4 12 9 12 33 0 15 -8 34 -15 42 -15z m216 -65
c-16 -14 -43 -29 -59 -35 -36 -12 -31 -8 25 30 54 35 75 38 34 5z"/>
</g>
</svg>
